<?xml version="1.0" encoding="UTF-8"?>
<svg xmlns="http://www.w3.org/2000/svg" viewBox="0 0 34.98 33.4">
  <defs>
    <style>
      .cls-1, .cls-2, .cls-3, .cls-4, .cls-5, .cls-6 {
        fill-rule: evenodd;
      }

      .cls-1, .cls-7 {
        fill: #dddfe8;
      }

      .cls-8 {
        fill: #324981;
      }

      .cls-9 {
        fill: #f4f9ff;
      }

      .cls-10 {
        fill: #2a2a2a;
      }

      .cls-11 {
        fill: #ff2226;
      }

      .cls-12 {
        fill: #9995a1;
      }

      .cls-2, .cls-13 {
        fill: #fff;
      }

      .cls-14, .cls-3 {
        fill: gray;
        mix-blend-mode: multiply;
        opacity: .5;
      }

      .cls-15 {
        fill: #041634;
        font-family: Poppins-Black, Poppins;
        font-size: 6.34px;
        font-weight: 800;
      }

      .cls-13 {
        opacity: .9;
      }

      .cls-16 {
        fill: #f3c37c;
      }

      .cls-17 {
        isolation: isolate;
      }

      .cls-18 {
        fill: #ffa910;
      }

      .cls-19 {
        fill: #f1c500;
      }

      .cls-20 {
        fill: #9d9ca0;
      }

      .cls-4, .cls-21 {
        fill: #546796;
      }

      .cls-5, .cls-22 {
        fill: #75cf3f;
      }

      .cls-23, .cls-6 {
        fill: #16131b;
      }

      .cls-24 {
        fill: #c97e43;
      }
    </style>
  </defs>
  <g class="cls-17">
    <g id="Layer_2">
      <g id="Layer_1-2" data-name="Layer_1">
        <g>
          <g>
            <g>
              <path class="cls-3" d="M28.74,23.8v-.6h-3.43v-2.02l.29.32h0s.27.31.27.31c.35.39.95.43,1.34.08.15-.13.24-.3.29-.47.08-.3,0-.62-.21-.87h0s0,0,0,0l-.27-.31h0l-.06-.07-1.65-1.86V7.25H4.45v15.95H1.02v.6h.12v.6h-.12v2.05h27.72v-2.05h-.12v-.6h.12ZM4.52,25.85v-1.46h-.12v-.6h8.86v.6h-.12v1.46H4.52ZM25.37,24.4h-.12v1.46h-8.62v-1.46h-.12v-.6h8.86v.6Z"/>
              <g>
                <g>
                  <rect class="cls-24" x="3.43" y="6.05" width="16.34" height="15.97"/>
                  <rect class="cls-16" x="8.1" y="6.05" width="16.2" height="15.97"/>
                  <rect class="cls-13" x="14.02" y="6.05" width="4.35" height="4.11"/>
                  <rect class="cls-13" x="14.02" y="17.91" width="4.35" height="4.11"/>
                  <g>
                    <rect class="cls-7" x="8.87" y="18.74" width="4.2" height="2.54"/>
                    <g>
                      <rect class="cls-23" x="9.06" y="19.1" width=".45" height="1.83"/>
                      <rect class="cls-23" x="9.78" y="19.1" width=".16" height="1.83"/>
                      <rect class="cls-23" x="10.58" y="19.1" width=".37" height="1.83"/>
                      <rect class="cls-23" x="10.12" y="19.1" width=".22" height="1.83"/>
                      <rect class="cls-23" x="11.22" y="19.1" width=".15" height="1.83"/>
                      <rect class="cls-23" x="11.93" y="19.1" width=".3" height="1.83"/>
                      <rect class="cls-23" x="12.34" y="19.1" width=".15" height="1.83"/>
                      <rect class="cls-23" x="11.59" y="19.1" width=".21" height="1.83"/>
                      <rect class="cls-23" x="12.65" y="19.1" width=".22" height="1.83"/>
                    </g>
                  </g>
                </g>
                <g>
                  <rect class="cls-23" y="22" width="27.72" height=".6"/>
                  <g>
                    <rect class="cls-23" x=".12" y="22.6" width="3.26" height=".6"/>
                    <rect class="cls-8" y="23.19" width="3.49" height="1.46"/>
                  </g>
                  <rect class="cls-23" y="24.65" width="27.72" height=".6"/>
                  <g>
                    <rect class="cls-23" x="24.35" y="22.6" width="3.26" height=".6"/>
                    <rect class="cls-8" x="24.23" y="23.19" width="3.49" height="1.46"/>
                  </g>
                  <g>
                    <rect class="cls-23" x="12.23" y="22.6" width="3.26" height=".6"/>
                    <rect class="cls-8" x="12.11" y="23.19" width="3.49" height="1.46"/>
                  </g>
                </g>
                <g>
                  <path class="cls-1" d="M17.08,10.4c-1.08.95-1.18,2.6-.22,3.67.95,1.08,2.6,1.18,3.67.22,1.08-.95,1.18-2.6.22-3.67-.95-1.08-2.6-1.18-3.67-.22Z"/>
                  <path class="cls-4" d="M22.09,11.68c.37,1.81-.8,3.58-2.61,3.95-1.81.37-3.58-.8-3.95-2.61-.37-1.81.8-3.58,2.61-3.95,1.81-.37,3.58.8,3.95,2.61h0ZM21.24,11.85c-.27-1.34-1.59-2.22-2.93-1.94-1.34.27-2.22,1.59-1.94,2.94.27,1.34,1.59,2.22,2.93,1.94,1.34-.27,2.22-1.59,1.94-2.93Z"/>
                  <rect class="cls-21" x="20.78" y="14.17" width=".82" height="1.74" transform="translate(-4.65 17.81) rotate(-41.5)"/>
                  <path class="cls-5" d="M21.42,15.31h0c-.39.35-.43.95-.08,1.34l3.52,3.97c.35.39.95.43,1.34.08h0c.39-.35.43-.95.08-1.34l-3.52-3.97c-.35-.39-.95-.43-1.34-.08Z"/>
                  <path class="cls-6" d="M21.42,15.31h0c-.39.35-.43.95-.08,1.34l1.42-1.26c-.35-.39-.95-.43-1.34-.08h0ZM21.61,16.95l1.42-1.26,2.97,3.35-1.42,1.26-2.97-3.35h0ZM24.85,20.62c.35.39.95.43,1.34.08h0c.39-.35.43-.95.08-1.34l-1.42,1.26Z"/>
                  <path class="cls-2" d="M19.92,11.47c.09.13.27.15.4.06.13-.09.15-.27.06-.4-.06-.08-.13-.16-.2-.23-.35-.36-.8-.56-1.26-.61-.46-.05-.93.07-1.32.36-.07.05-.14.11-.2.17-.11.11-.11.29,0,.4.11.11.29.11.4,0,.04-.04.09-.08.14-.12.27-.2.6-.28.92-.25.33.03.65.18.91.44.05.05.1.11.15.17Z"/>
                </g>
              </g>
            </g>
            <g>
              <path class="cls-14" d="M8.86,19.04c.09,0,.16-.07.16-.16v-.9c0-.09-.07-.16-.16-.16h-.22v-1.4c0-.33-.27-.6-.6-.6H1.93c-.33,0-.6.27-.6.6v1.4h-.22c-.09,0-.16.07-.16.16v.9c0,.09.07.16.16.16h.22v1.27h-.22c-.09,0-.16.07-.16.16v.9c0,.09.07.16.16.16h.22v2.62c0,.14.05.28.14.39l.96,1.13v7.08c0,.37.3.66.66.66h3.79c.37,0,.66-.3.66-.66v-7.08l.96-1.13c.09-.11.14-.25.14-.39v-.63h.22c.09,0,.16-.07.16-.16v-.49c0-.09-.07-.16-.16-.16h-.22v-1.18h.22c.09,0,.16-.07.16-.16v-.9c0-.09-.07-.16-.16-.16h-.22v-1.27h.22Z"/>
              <g>
                <g>
                  <path class="cls-8" d="M.32,18.11h.87v-1.22H.32c-.09,0-.16.07-.16.16v.9c0,.09.07.16.16.16Z"/>
                  <path class="cls-8" d="M.32,20.59h.87v-1.22H.32c-.09,0-.16.07-.16.16v.9c0,.09.07.16.16.16Z"/>
                  <path class="cls-8" d="M7.2,16.89v1.22h.87c.09,0,.16-.07.16-.16v-.9c0-.09-.07-.16-.16-.16h-.87Z"/>
                  <path class="cls-8" d="M7.2,20.59h.87c.09,0,.16-.07.16-.16v-.9c0-.09-.07-.16-.16-.16h-.87v1.22Z"/>
                  <path class="cls-8" d="M7.2,22.58h.87c.09,0,.16-.07.16-.16v-.49c0-.09-.07-.16-.16-.16h-.87v.8Z"/>
                </g>
                <path class="cls-23" d="M7.25,14.89H1.14c-.33,0-.6.27-.6.6v7.72c0,.14.05.28.14.39l.96,1.13v7.08c0,.37.3.66.66.66h3.79c.37,0,.66-.3.66-.66v-7.08l.96-1.13c.09-.11.14-.25.14-.39v-7.72c0-.33-.27-.6-.6-.6Z"/>
                <rect class="cls-10" x="1.35" y="15.78" width="5.68" height="7.48"/>
                <rect class="cls-7" x="1.59" y="16.09" width="5.21" height="6.85"/>
                <g>
                  <polygon class="cls-9" points="4.05 22.94 6.8 19.29 6.8 17.32 2.56 22.94 4.05 22.94"/>
                  <polygon class="cls-9" points="1.59 20.08 4.6 16.09 3.11 16.09 1.59 18.11 1.59 20.08"/>
                </g>
                <rect class="cls-18" x="3.2" y="23.68" width="1.99" height=".81"/>
                <g>
                  <rect class="cls-12" x="2.2" y="25.6" width=".89" height=".63"/>
                  <rect class="cls-12" x="3.75" y="25.6" width=".89" height=".63"/>
                  <rect class="cls-12" x="5.29" y="25.6" width=".89" height=".63"/>
                  <rect class="cls-12" x="2.2" y="26.95" width=".89" height=".63"/>
                  <rect class="cls-12" x="3.75" y="26.95" width=".89" height=".63"/>
                  <rect class="cls-12" x="5.29" y="26.95" width=".89" height=".63"/>
                  <rect class="cls-12" x="2.2" y="28.3" width=".89" height=".63"/>
                  <rect class="cls-12" x="3.75" y="28.3" width=".89" height=".63"/>
                  <rect class="cls-12" x="5.29" y="28.3" width=".89" height=".63"/>
                  <rect class="cls-12" x="2.2" y="30.42" width=".89" height=".47"/>
                  <rect class="cls-12" x="3.75" y="30.42" width=".89" height=".47"/>
                  <rect class="cls-12" x="2.2" y="31.16" width=".89" height=".47"/>
                  <rect class="cls-12" x="3.75" y="31.16" width=".89" height=".47"/>
                  <rect class="cls-12" x="2.2" y="29.68" width=".89" height=".47"/>
                  <rect class="cls-12" x="3.75" y="29.68" width=".89" height=".47"/>
                  <rect class="cls-11" x="5.29" y="29.65" width=".89" height="1.98"/>
                </g>
                <path class="cls-20" d="M6.27,24.09c0,.17-.14.31-.31.31s-.31-.14-.31-.31.14-.31.31-.31.31.14.31.31Z"/>
                <path class="cls-22" d="M2.72,24.09c0,.17-.14.31-.31.31s-.31-.14-.31-.31.14-.31.31-.31.31.14.31.31Z"/>
              </g>
            </g>
          </g>
        </g>
      </g>
    </g>
  </g>
</svg>
