<svg xmlns="http://www.w3.org/2000/svg" xmlns:xlink="http://www.w3.org/1999/xlink" viewBox="0 0 512 325.327" width="512" height="325.327">
  <defs>
    <style>
      .cls-1 {
        fill: #f67807;
      }

      .cls-2 {
        fill: #fed7a6;
      }

      .cls-3 {
        fill: #f4f9ff;
      }

      .cls-4, .cls-5 {
        fill: #fff;
      }

      .cls-6 {
        fill: #eec293;
      }

      .cls-7 {
        fill: gray;
        opacity: .5;
      }

      .cls-7, .cls-8 {
        mix-blend-mode: multiply;
      }

      .cls-5 {
        opacity: .9;
      }

      .cls-9 {
        fill: #041634;
        font-family: Poppins-Black, Poppins;
        font-size: 6.05px;
        font-weight: 800;
      }

      .cls-10 {
        fill: #f3c37c;
      }

      .cls-8 {
        opacity: .36;
      }

      .cls-11 {
        fill: #d2a910;
      }

      .cls-12 {
        isolation: isolate;
      }

      .cls-13 {
        fill: #ffa910;
      }

      .cls-14 {
        fill: #f1c500;
      }

      .cls-15 {
        fill: #bcbcbc;
      }

      .cls-16 {
        fill: #546796;
      }

      .cls-17 {
        fill: #16131b;
      }

      .cls-18 {
        fill: url(#linear-gradient);
      }

      .cls-19 {
        fill: #fffff3;
      }

      .cls-20 {
        fill: #c97e43;
      }
    </style>
    <path id="linear-gradient" x1="0" y1="21.89" x2="27.1" y2="21.89" gradientUnits="userSpaceOnUse" d="">
      <stop offset="0" stop-color="#8596cb"/>
      <stop offset="1" stop-color="#1b1f38"/>
    </path>
  </defs>
  <g class="cls-12">
    <g id="Layer_2">
      <g id="Layer_1-2" data-name="Layer_1">
        <g>
          <g>
            <path class="cls-7" d="M473.564 282.813V216.137h-37.314v-66.676h-67.594v66.676h-37.62v66.676h-5.2V159.35h-17.841V77.891h-37.62v36.601h10.603V232.449s-0.306 -0.102 -0.408 -0.204c-6.933 -12.846 -20.594 -38.13 -27.527 -51.893l-30.687 -91.45c-3.16 -6.525 -9.38 -10.909 -16.618 -11.724L69.837 64.127a9.002 9.002 0 0 0 -9.991 8.972v94.713l-0.918 -0.714c-21.614 0 -33.95 12.132 -43.839 31.299l-0.204 0.408c-4.18 8.156 -6.423 17.23 -6.423 26.405v51.384c0 12.234 2.447 22.123 14.681 22.123h16.414c6.015 15.497 21.002 26.507 38.538 26.507s32.624 -11.011 38.538 -26.507h107.967c6.015 15.497 21.002 26.507 38.538 26.507 22.837 0 41.392 -18.555 41.392 -41.392 0 -4.384 -0.714 -8.666 -1.937 -12.642h5.2v-93.693h3.364v115.307H483.25v-10.093h-9.889ZM135.29 117.142h-0.102c0 -0.612 -0.102 -1.529 0 -2.549 0 1.427 0.204 2.549 0.204 2.549Zm54.34 75.852v56.685c-1.121 -1.325 -3.364 -2.753 -7.544 -3.67l3.262 -32.013c0.306 -3.059 -1.223 -6.015 -3.772 -7.544l-20.39 -12.03 -1.325 -0.918c0 -1.733 -0.204 -3.364 -0.408 -4.894s-0.102 -1.223 -0.204 -3.059l28.139 -0.204s0.816 0.102 1.223 0.102h0.51c1.937 2.345 7.239 0.306 12.744 -5.098l1.427 2.039 -13.661 10.705Zm13.56 -18.657c-1.529 1.937 -3.262 3.466 -4.792 4.486 -0.204 -2.243 -1.937 -4.078 -4.384 -4.69 0.714 -1.427 1.733 -2.855 2.957 -4.282 3.262 -3.874 7.341 -6.423 9.176 -5.607 2.141 0.816 0.918 5.301 -2.957 10.093M77.279 91.145c0 -5.403 4.588 -9.481 9.991 -8.972l108.17 9.991c7.239 0.714 13.56 5.2 16.618 11.826l20.39 68.817h-19.269s0 0.612 0.102 1.631l-3.466 2.753 -2.345 -3.568c4.996 -7.137 5.709 -12.948 2.345 -13.763 -3.16 -0.816 -9.38 3.262 -14.273 9.074 -1.427 1.631 -2.651 3.364 -3.67 4.996h-0.918l-28.954 -2.243a3.67 3.67 0 0 1 -2.651 -1.733l-4.996 -10.501s-0.204 -0.714 -0.204 -1.121c-0.816 -4.384 -4.18 -9.685 -8.36 -12.642h-0.816l0.204 -4.282c4.996 -0.204 9.278 -3.059 11.317 -7.341 0 0 1.325 -1.835 1.325 -5.403V108.068c7.341 -3.059 4.792 -11.419 4.792 -11.419 -1.835 2.243 -8.564 1.937 -21.92 -0.612 -6.423 -1.223 -11.521 0.51 -13.967 2.753 -5.913 5.2 -7.137 12.03 -5.2 21.716 1.427 7.137 8.258 9.787 9.889 10.297 0.612 3.262 2.447 6.015 4.996 7.85v5.403s-0.51 -0.204 -0.714 -0.306c-4.894 1.529 -8.666 5.709 -9.481 10.909 -2.957 17.128 -2.141 34.256 -1.835 38.843l0.408 6.933c0 2.549 0.918 4.894 2.345 6.831 -1.325 -1.529 -2.447 -3.364 -3.059 -4.996 -1.733 -4.588 -4.282 -18.861 -6.933 -30.891 -1.325 -6.015 -4.996 -11.928 -11.113 -12.642h-0.102c-4.792 -0.306 -9.583 -0.408 -14.375 -0.612 -1.733 0 -3.16 1.427 -3.059 3.16 0.408 7.646 1.223 18.249 3.059 28.954l-14.375 -10.093V91.145Z"/>
            <g>
              <path class="cls-1" d="M146.198 174.847c-1.325 0 -2.447 -0.714 -3.059 -1.937l-13.254 -27.425a5.098 5.098 0 0 1 -0.51 -2.447c0.102 -2.855 3.059 -8.462 9.38 -5.403 1.02 0.51 2.345 1.835 2.855 2.855l9.38 19.371c0.51 1.02 1.529 1.631 2.651 1.733l28.954 2.243v10.603l-36.295 0.306Z"/>
              <path class="cls-6" d="M183.716 163.836h-1.223v10.603s0.612 0.102 1.02 0.102c3.568 0 6.525 -2.345 6.525 -5.301s-2.855 -5.403 -6.423 -5.505Z"/>
              <g>
                <g>
                  <path class="cls-3" points="31.13 26.77 31.13 16.45 31.13 14.66 29.71 14.66 29.38 14.66 29.38 6.67 27.39 6.67 26.73 6.67 25.69 6.67 25.69 10.27 26.73 10.27 26.73 25.64 29.38 25.64 29.38 16.45 29.71 16.45 29.71 27.76 30.63 27.76 31.13 27.76 46.59 27.76 46.59 26.77 31.13 26.77" d="M317.375 272.924L317.375 167.71L317.375 149.461L302.898 149.461L299.533 149.461L299.533 68.002L279.245 68.002L272.516 68.002L261.913 68.002L261.913 104.704L272.516 104.704L272.516 261.403L299.533 261.403L299.533 167.71L302.898 167.71L302.898 283.017L312.277 283.017L317.375 283.017L474.992 283.017L474.992 272.924L317.375 272.924Z"/>
                  <path class="cls-14" x="27.76" y="6.67" width=".67" height="18.97" d="M283.017 68.002H289.848V261.403H283.017V68.002z"/>
                  <g>
                    <path class="cls-3" d="M213.894 79.012c-3.16 -6.525 -9.38 -10.909 -16.618 -11.724L61.375 54.238a9.002 9.002 0 0 0 -9.991 8.972v101.442l17.332 15.599V81.153c0 -5.403 4.588 -9.481 9.991 -8.972l108.17 9.991c7.239 0.714 13.56 5.2 16.618 11.826l22.225 75.036 1.121 2.345h17.943l-30.993 -92.47Z"/>
                    <path class="cls-17" d="m214.71 187.591 -15.599 -23.959c4.996 -7.137 5.709 -12.948 2.345 -13.763 -3.16 -0.816 -9.38 3.262 -14.273 9.074 -5.2 6.015 -8.36 13.152 -6.729 16.21 1.631 2.957 7.239 0.918 13.05 -4.69l13.152 18.351 8.258 -1.121Zm-30.076 -17.536c-1.223 -1.631 0.612 -6.117 3.976 -10.093 3.262 -3.874 7.341 -6.423 9.176 -5.607 2.141 0.816 0.918 5.301 -2.957 10.093 -4.078 4.996 -8.768 7.442 -10.195 5.607"/>
                    <path class="cls-16" points="20.26 16 17.77 17.96 17.77 24.98 20.94 24.98 20.94 16 20.26 16" d="M206.554 163.122L181.168 183.105L181.168 254.675L213.486 254.675L213.486 163.122L206.554 163.122Z"/>
                    <path class="cls-16" d="M115.715 192.28c-1.733 -4.588 -4.282 -18.861 -6.933 -30.891 -1.325 -6.015 -4.996 -11.928 -11.113 -12.642h-0.102c-4.792 -0.306 -9.583 -0.408 -14.375 -0.612 -1.733 0 -3.16 1.427 -3.059 3.16 0.816 16.312 3.67 46.592 14.375 60.457 14.987 19.473 35.173 46.49 35.173 46.49h31.809l-6.321 -49.344s0.918 -4.486 -30.891 -8.156c-3.874 -0.408 -7.239 -4.792 -8.564 -8.462"/>
                    <path class="cls-18" d="M240.809 162.918h-36.091s7.442 82.071 -6.321 82.071h-66.37l-18.759 -43.533 -62.802 -44.043c-21.614 0 -33.95 12.132 -43.839 31.299l-0.204 0.408c-4.18 8.156 -6.423 17.23 -6.423 26.405v51.384c0 12.234 2.447 22.123 14.681 22.123h254.879c-24.672 -51.282 6.831 -58.724 6.831 -58.724s-30.891 -56.685 -35.479 -67.39Z"/>
                    <path class="cls-14" d="M69.735 219.603c-30.076 0 -54.442 24.366 -54.442 54.442 0 5.2 0.816 10.195 2.141 14.885h12.54a45.878 45.878 0 0 1 -0.816 -8.36c0 -25.08 18.147 -45.368 40.577 -45.368s40.577 20.288 40.577 45.368c0 2.855 -0.306 5.607 -0.816 8.36h12.54c1.325 -4.792 2.141 -9.787 2.141 -14.885 0 -30.076 -24.366 -54.442 -54.442 -54.442"/>
                    <path class="cls-14" d="m285.26 250.699 8.768 -14.375a54.432 54.432 0 0 0 -93.693 37.722c0 5.2 0.816 10.195 2.141 14.885h12.54a45.878 45.878 0 0 1 -0.816 -8.36c0 -25.08 18.147 -45.368 40.577 -45.368 12.132 0 23.041 6.015 30.483 15.395Z"/>
                    <path class="cls-17" cx="25" cy="26.88" r="4.06" transform="rotate(-76.67 24.994 26.876)" d="M296.271 274.045A41.392 41.392 0 0 1 254.879 315.438A41.392 41.392 0 0 1 213.486 274.045A41.392 41.392 0 0 1 296.271 274.045z"/>
                    <path class="cls-15" d="M280.162 274.045a25.386 25.386 0 1 1 -50.772 0 25.386 25.386 0 0 1 50.772 0"/>
                    <path class="cls-17" cx="6.84" cy="26.88" r="4.06" transform="rotate(-45 6.842 26.876)" d="M111.127 274.045A41.392 41.392 0 0 1 69.735 315.438A41.392 41.392 0 0 1 28.342 274.045A41.392 41.392 0 0 1 111.127 274.045z"/>
                    <path class="cls-15" d="M95.019 274.045a25.386 25.386 0 1 1 -50.772 0 25.386 25.386 0 0 1 50.772 0"/>
                    <path class="cls-17" d="M265.583 274.045a10.705 10.705 0 1 1 -21.41 0 10.705 10.705 0 0 1 21.41 0"/>
                    <path class="cls-17" d="M80.44 274.045a10.705 10.705 0 1 1 -21.41 0 10.705 10.705 0 0 1 21.41 0"/>
                  </g>
                </g>
                <g>
                  <path class="cls-20" x="36.21" y="20.23" width="4.74" height="6.54" d="M369.166 206.248H417.491V272.924H369.166V206.248z"/>
                  <g>
                    <path class="cls-10" x="31.64" y="20.23" width="6.63" height="6.54" d="M322.574 206.248H390.168V272.924H322.574V206.248z"/>
                    <path class="cls-5" x="34.07" y="20.23" width="1.78" height="1.68" d="M347.348 206.248H365.496V223.376H347.348V206.248z"/>
                    <path class="cls-5" x="34.07" y="25.09" width="1.78" height="1.68" d="M347.348 255.796H365.496V272.924H347.348V255.796z"/>
                    <g>
                      <path class="cls-19" x="31.96" y="25.43" width="1.72" height="1.04" d="M325.837 259.262H343.372V269.865H325.837V259.262z"/>
                      <g>
                        <path class="cls-17" x="32.04" y="25.58" width=".18" height=".75" d="M326.652 260.792H328.487V268.438H326.652V260.792z"/>
                        <path class="cls-17" x="32.33" y="25.58" width=".06" height=".75" d="M329.609 260.792H330.221V268.438H329.609V260.792z"/>
                        <path class="cls-17" x="32.66" y="25.58" width=".15" height=".75" d="M332.973 260.792H334.503V268.438H332.973V260.792z"/>
                        <path class="cls-17" x="32.47" y="25.58" width=".09" height=".75" d="M331.036 260.792H331.954V268.438H331.036V260.792z"/>
                        <path class="cls-17" x="32.92" y="25.58" width=".06" height=".75" d="M335.624 260.792H336.236V268.438H335.624V260.792z"/>
                        <path class="cls-17" x="33.21" y="25.58" width=".12" height=".75" d="M338.581 260.792H339.804V268.438H338.581V260.792z"/>
                        <path class="cls-17" x="33.38" y="25.58" width=".06" height=".75" d="M340.314 260.792H340.926V268.438H340.314V260.792z"/>
                        <path class="cls-17" x="33.07" y="25.58" width=".08" height=".75" d="M337.153 260.792H337.969V268.438H337.153V260.792z"/>
                        <path class="cls-17" x="33.5" y="25.58" width=".09" height=".75" d="M341.537 260.792H342.455V268.438H341.537V260.792z"/>
                      </g>
                    </g>
                  </g>
                  <g>
                    <path class="cls-10" x="38.99" y="20.23" width="6.63" height="6.54" d="M397.509 206.248H465.102V272.924H397.509V206.248z"/>
                    <path class="cls-5" x="41.41" y="20.23" width="1.78" height="1.68" d="M422.181 206.248H440.328V223.376H422.181V206.248z"/>
                    <path class="cls-5" x="41.41" y="25.09" width="1.78" height="1.68" d="M422.181 255.796H440.328V272.924H422.181V255.796z"/>
                    <g>
                      <path class="cls-19" x="39.31" y="25.43" width="1.72" height="1.04" d="M400.771 259.262H418.307V269.865H400.771V259.262z"/>
                      <g>
                        <path class="cls-17" x="39.38" y="25.58" width=".18" height=".75" d="M401.485 260.792H403.32V268.438H401.485V260.792z"/>
                        <path class="cls-17" x="39.68" y="25.58" width=".06" height=".75" d="M404.543 260.792H405.155V268.438H404.543V260.792z"/>
                        <path class="cls-17" x="40" y="25.58" width=".15" height=".75" d="M407.806 260.792H409.335V268.438H407.806V260.792z"/>
                        <path class="cls-17" x="39.82" y="25.58" width=".09" height=".75" d="M405.971 260.792H406.888V268.438H405.971V260.792z"/>
                        <path class="cls-17" x="40.27" y="25.58" width=".06" height=".75" d="M410.558 260.792H411.17V268.438H410.558V260.792z"/>
                        <path class="cls-17" x="40.56" y="25.58" width=".12" height=".75" d="M413.515 260.792H414.738V268.438H413.515V260.792z"/>
                        <path class="cls-17" x="40.72" y="25.58" width=".06" height=".75" d="M415.146 260.792H415.758V268.438H415.146V260.792z"/>
                        <path class="cls-17" x="40.42" y="25.58" width=".08" height=".75" d="M412.088 260.792H412.903V268.438H412.088V260.792z"/>
                        <path class="cls-17" x="40.85" y="25.58" width=".09" height=".75" d="M416.472 260.792H417.389V268.438H416.472V260.792z"/>
                      </g>
                    </g>
                  </g>
                  <g>
                    <path class="cls-10" x="35.33" y="13.69" width="6.63" height="6.54" d="M360.194 139.571H427.788V206.248H360.194V139.571z"/>
                    <path class="cls-5" x="37.76" y="13.69" width="1.78" height="1.68" d="M384.969 139.571H403.116V156.699H384.969V139.571z"/>
                    <path class="cls-5" x="37.76" y="18.55" width="1.78" height="1.68" d="M384.969 189.12H403.116V206.248H384.969V189.12z"/>
                    <g>
                      <path class="cls-19" x="35.65" y="18.89" width="1.72" height="1.04" d="M363.457 192.586H380.992V203.189H363.457V192.586z"/>
                      <g>
                        <path class="cls-17" x="35.73" y="19.04" width=".18" height=".75" d="M364.272 194.115H366.108V201.762H364.272V194.115z"/>
                        <path class="cls-17" x="36.02" y="19.04" width=".06" height=".75" d="M367.229 194.115H367.841V201.762H367.229V194.115z"/>
                        <path class="cls-17" x="36.35" y="19.04" width=".15" height=".75" d="M370.593 194.115H372.123V201.762H370.593V194.115z"/>
                        <path class="cls-17" x="36.16" y="19.04" width=".09" height=".75" d="M368.656 194.115H369.574V201.762H368.656V194.115z"/>
                        <path class="cls-17" x="36.61" y="19.04" width=".06" height=".75" d="M373.244 194.115H373.856V201.762H373.244V194.115z"/>
                        <path class="cls-17" x="36.9" y="19.04" width=".12" height=".75" d="M376.201 194.115H377.424V201.762H376.201V194.115z"/>
                        <path class="cls-17" x="37.07" y="19.04" width=".06" height=".75" d="M377.934 194.115H378.546V201.762H377.934V194.115z"/>
                        <path class="cls-17" x="36.76" y="19.04" width=".08" height=".75" d="M374.773 194.115H375.589V201.762H374.773V194.115z"/>
                        <path class="cls-17" x="37.2" y="19.04" width=".09" height=".75" d="M379.259 194.115H380.177V201.762H379.259V194.115z"/>
                      </g>
                    </g>
                  </g>
                </g>
              </g>
              <path class="cls-6" points="12.57 12.32 12.53 13.92 13.37 13.94 13.43 12.34 12.57 12.32" d="M128.153 125.604L127.745 141.916L136.309 142.12L136.921 125.808L128.153 125.604Z"/>
              <path class="cls-1" d="m149.665 182.799 23.347 13.865c2.651 1.529 4.078 4.486 3.772 7.544l-3.262 32.013h-16.108l-0.51 -28.546 -27.119 -5.811c-5.301 -1.121 -9.074 -5.811 -9.074 -11.215v-9.38l28.852 1.631Z"/>
              <path class="cls-17" d="M158.636 236.119v8.972h23.041s4.384 -6.117 -7.952 -8.972h-14.987Z"/>
              <path class="cls-13" d="m168.73 196.562 -17.332 -12.948c-1.121 -18.861 -4.18 -27.323 -5.709 -35.275 -0.816 -4.384 -4.18 -9.685 -8.36 -12.642 -0.816 0.102 -1.733 0.204 -2.651 0.204 -2.855 0 -5.301 -0.714 -7.341 -2.039 -4.894 1.529 -8.666 5.709 -9.481 10.909 -2.957 17.128 -2.141 34.256 -1.835 38.843l0.408 6.933c0 5.403 3.772 10.093 9.074 11.215l27.119 5.811 0.51 28.546h16.108l3.262 -32.013c0.306 -3.059 -1.223 -6.015 -3.772 -7.544"/>
              <g class="cls-8">
                <path class="cls-11" d="m146.198 163.326 -9.38 -19.371a7.646 7.646 0 0 0 -2.855 -2.855c-6.219 -3.059 -9.176 2.651 -9.38 5.403 0 0.816 0.102 1.631 0.51 2.447l10.195 27.935c0.612 1.121 1.733 1.937 3.059 1.937h12.744s-0.714 -8.36 -0.918 -12.642c-0.306 -0.204 -3.874 -2.447 -3.976 -2.753Z"/>
              </g>
              <path class="cls-13" d="M142.732 175.662c-1.325 0 -2.447 -0.714 -3.059 -1.937l-13.254 -27.425a5.098 5.098 0 0 1 -0.51 -2.447c0.102 -2.855 3.059 -8.462 9.38 -5.403 1.02 0.51 2.345 1.835 2.855 2.855l9.38 19.371c0.51 1.02 1.529 1.631 2.651 1.733l28.954 2.243v10.603l-36.295 0.306Z"/>
              <path class="cls-2" d="M180.352 164.753h-1.223v10.603s0.612 0.102 1.02 0.102c3.568 0 6.525 -2.345 6.525 -5.301s-2.855 -5.403 -6.423 -5.505Z"/>
              <g>
                <g>
                  <path class="cls-17" d="M154.252 86.659c-1.835 2.243 -8.564 1.937 -21.92 -0.612 -6.423 -1.223 -11.521 0.51 -13.967 2.753 -5.913 5.2 -7.137 12.03 -5.2 21.716 1.631 8.054 10.297 10.399 10.297 10.399 -0.612 -3.568 -0.306 -8.156 -0.306 -8.156s-0.51 -3.059 -1.223 -6.831c1.325 0.816 1.529 2.141 1.529 2.141h3.364s-0.816 -4.894 0.612 -7.85c1.325 -2.957 0.714 -1.121 15.701 -1.121 2.753 0 4.792 -0.408 6.423 -1.121 7.341 -3.059 4.792 -11.419 4.792 -11.419Z"/>
                  <path class="cls-2" d="M127.439 99.403c-1.325 2.957 -0.612 7.85 -0.612 7.85h-3.364s-0.306 -2.345 -2.855 -2.651c-1.02 -0.102 -3.262 0.816 -3.568 3.364v0.51c0 3.16 2.447 5.607 5.505 5.607h0.408v4.18c0 7.239 5.913 13.152 13.152 13.152h0.306c7.239 0 13.152 -5.913 13.152 -13.152V97.16c-1.631 0.714 -3.67 1.121 -6.423 1.121 -14.987 0 -14.375 -1.835 -15.701 1.121"/>
                </g>
                <path class="cls-17" cx="14.06" cy="10.8" r=".18" d="M145.179 110.108A1.835 1.835 0 0 1 143.344 111.943A1.835 1.835 0 0 1 141.509 110.108A1.835 1.835 0 0 1 145.179 110.108z"/>
                <path class="cls-4" d="M148.135 124.075s1.325 -1.835 1.325 -5.403h-5.913s0.612 4.792 4.588 5.403"/>
                <path class="cls-17" x="13.79" y="10.29" width=".49" height=".14" rx=".06" ry=".06" d="M141.203 104.908H144.975A0.612 0.612 0 0 1 145.587 105.52V105.724A0.612 0.612 0 0 1 144.975 106.335H141.203A0.612 0.612 0 0 1 140.591 105.724V105.52A0.612 0.612 0 0 1 141.203 104.908z"/>
              </g>
              <path class="cls-17" d="M154.252 236.119v8.972h23.041s4.384 -6.117 -7.952 -8.972h-14.987Z"/>
            </g>
          </g>
        </g>
      </g>
    </g>
  </g>
</svg>
