<svg xmlns="http://www.w3.org/2000/svg" viewBox="0 0 512 690.987" width="512" height="690.987">
  <defs>
    <style>
      .cls-1 {
        fill: #f67807;
      }

      .cls-2 {
        fill: #fed7a6;
      }

      .cls-3 {
        fill: #f4f9ff;
      }

      .cls-4 {
        fill: #fff;
      }

      .cls-5 {
        fill: #eec293;
      }

      .cls-6 {
        fill: gray;
        opacity: .5;
      }

      .cls-6,
      .cls-7 {
        mix-blend-mode: multiply;
      }

      .cls-8 {
        fill: #f9dbba;
      }

      .cls-9 {
        isolation: isolate;
      }

      .cls-10 {
        fill: #cd8555;
      }

      .cls-11 {
        fill: #ffa910;
      }

      .cls-7 {
        fill: #33415f;
        opacity: .55;
      }

      .cls-12 {
        fill: #f1c500;
      }

      .cls-13 {
        fill: #b75f22;
      }

      .cls-14 {
        fill: #16131b;
      }

      .cls-15 {
        fill: #fffff3;
      }

      .cls-16 {
        fill: #041634;
        font-family: Poppins-Black, Poppins;
        font-size: 6.11px;
        font-weight: 800;
      }
    </style>
  </defs>
  <g class="cls-9">
    <g id="Layer_2">
      <g id="Layer_1-2" data-name="Layer_1">
        <g>
          <g>
            <path class="cls-6"
              d="M450.56 576.427h-4.907v-98.987h-50.56v-74.88h-20.907v-100.267H243.2v100.267h-17.067v118.4H166.4c-5.76 -20.693 -19.2 -55.893 -27.52 -77.44h4.907L164.267 448l18.987 -30.08c1.067 1.28 2.56 2.56 4.267 3.2 1.92 0.853 7.04 -5.12 10.027 -11.947 2.987 -6.613 4.267 -14.08 2.133 -15.573 -0.213 -0.213 -0.64 -0.213 -0.853 -0.427l15.573 -24.747 -62.08 -10.24 -0.64 1.067 -6.613 -33.493c-1.92 -9.813 -7.68 -18.347 -16 -23.68a44.933 44.933 0 0 0 -14.507 -10.667l0.427 -9.173c21.76 -0.64 39.467 -18.56 39.467 -40.533V183.467c22.613 -9.387 14.72 -35.2 14.72 -35.2 -5.547 7.04 -26.453 5.973 -67.627 -1.707s-45.651 28.8 -45.651 28.8c-1.493 20.48 2.56 31.147 2.56 31.147a17.344 17.344 0 0 0 12.16 29.44h1.28v5.973c0 13.227 6.4 24.96 16.213 32.427l-0.427 15.36c-8.747 2.133 -18.56 6.187 -26.453 11.947a15.92 15.92 0 0 0 -9.173 8.96l-0.853 2.133s-0.427 0.64 -0.64 1.067c-0.64 1.28 -0.853 2.56 -1.28 3.84l-32 80.213c-1.28 3.413 0.427 16.853 30.507 19.2 0 2.347 0.427 4.693 0.64 6.827v0.427c1.707 17.28 3.413 29.227 3.2 30.08 -1.493 7.467 1.28 199.04 1.28 199.04h6.187v37.973h144c0 -5.333 -1.493 -10.24 -4.48 -14.293h279.253v-100.269h-28.371ZM164.267 654.72s-1.067 -0.853 -1.707 -1.28h1.707zm-41.811 13.44c-5.333 -1.92 -11.307 -4.48 -17.493 -8.32 -1.493 -1.067 -3.2 -2.133 -4.693 -3.2 -1.28 -1.067 -2.773 -2.133 -4.053 -3.413h5.973l0.64 -165.333c7.893 14.08 17.067 52.693 16.427 56.107l1.28 104.96 5.973 0.64v20.907c-1.28 -0.64 -2.347 -1.493 -3.627 -1.92Z" />
            <g>
              <g>
                <g>
                  <path class="cls-13" x="9.77" y="17.89" width="5.95" height="8.64"
                    d="M208.427 381.653h126.933v184.32h-126.933z" />
                  <path class="cls-10" x="11.8" y="17.89" width="5.89" height="8.64"
                    d="M251.733 381.653h125.653v184.32H251.733z" />
                  <path class="cls-8" x="14.37" y="17.89" width="1.38" height="1.78"
                    d="M306.56 381.653H336v37.973h-29.44z" />
                  <path class="cls-8" x="14.37" y="24.75" width="1.38" height="1.78"
                    d="M306.56 528H336v37.973h-29.44z" />
                  <g>
                    <path class="cls-15" x="12.14" y="25.11" width="1.82" height="1.1"
                      d="M258.987 535.68h38.827v23.467H258.987z" />
                    <g>
                      <path class="cls-14" x="12.22" y="25.26" width=".19" height=".79"
                        d="M260.693 538.88h4.053v16.853h-4.053z" />
                      <path class="cls-14" x="12.53" y="25.26" width=".07" height=".79"
                        d="M267.307 538.88h1.493v16.853h-1.493z" />
                      <path class="cls-14" x="12.87" y="25.26" width=".16" height=".79"
                        d="M274.56 538.88h3.413v16.853h-3.413z" />
                      <path class="cls-14" x="12.68" y="25.26" width=".1" height=".79"
                        d="M270.507 538.88h2.133v16.853h-2.133z" />
                      <path class="cls-14" x="13.15" y="25.26" width=".07" height=".79"
                        d="M280.533 538.88h1.493v16.853h-1.493z" />
                      <path class="cls-14" x="13.46" y="25.26" width=".13" height=".79"
                        d="M287.147 538.88h2.773v16.853h-2.773z" />
                      <path class="cls-14" x="13.64" y="25.26" width=".07" height=".79"
                        d="M290.987 538.88h1.493v16.853h-1.493z" />
                      <path class="cls-14" x="13.31" y="25.26" width=".09" height=".79"
                        d="M283.947 538.88h1.92v16.853h-1.92z" />
                      <path class="cls-14" x="13.77" y="25.26" width=".1" height=".79"
                        d="M293.76 538.88h2.133v16.853h-2.133z" />
                    </g>
                  </g>
                </g>
                <path class="cls-13" x="12.49" y="20.96" width="5.19" height="5.57"
                  d="M266.453 447.147h110.72v118.827H266.453z" />
                <g>
                  <path class="cls-13" x="13.92" y="21.4" width="4.81" height="4.7"
                    d="M296.96 456.533h102.613v100.267h-102.613z" />
                  <path class="cls-10" x="15.29" y="21.4" width="4.76" height="4.7"
                    d="M326.187 456.533h101.547v100.267h-101.547z" />
                  <path class="cls-8" x="17.29" y="21.4" width=".76" height="1.21"
                    d="M368.853 456.533h16.213v25.813h-16.213z" />
                  <path class="cls-8" x="17.29" y="24.89" width=".76" height="1.21"
                    d="M368.853 530.987h16.213v25.813h-16.213z" />
                  <g>
                    <path class="cls-15" x="18.48" y="25.13" width="1.24" height=".75"
                      d="M394.24 536.107h26.453v16h-26.453z" />
                    <g>
                      <path class="cls-14" x="18.54" y="25.24" width=".13" height=".54"
                        d="M395.52 538.453h2.773v11.52h-2.773z" />
                      <path class="cls-14" x="18.75" y="25.24" width=".05" height=".54"
                        d="M400 538.453h1.067v11.52h-1.067z" />
                      <path class="cls-14" x="18.98" y="25.24" width=".11" height=".54"
                        d="M404.907 538.453h2.347v11.52h-2.347z" />
                      <path class="cls-14" x="18.85" y="25.24" width=".07" height=".54"
                        d="M402.133 538.453h1.493v11.52h-1.493z" />
                      <path class="cls-14" x="19.17" y="25.24" width=".04" height=".54"
                        d="M408.96 538.453h0.853v11.52h-0.853z" />
                      <path class="cls-14" x="19.38" y="25.24" width=".09" height=".54"
                        d="M413.44 538.453h1.92v11.52h-1.92z" />
                      <path class="cls-14" x="19.5" y="25.24" width=".04" height=".54"
                        d="M416 538.453h0.853v11.52H416z" />
                      <path class="cls-14" x="19.28" y="25.24" width=".06" height=".54"
                        d="M411.307 538.453h1.28v11.52h-1.28z" />
                      <path class="cls-14" x="19.59" y="25.24" width=".07" height=".54"
                        d="M417.92 538.453h1.493v11.52h-1.493z" />
                    </g>
                  </g>
                </g>
                <g>
                  <path class="cls-13" x="15.47" y="26.04" width="4.81" height="4.7"
                    d="M330.027 555.52h102.613v100.267h-102.613z" />
                  <path class="cls-10" x="16.85" y="26.04" width="4.76" height="4.7"
                    d="M359.467 555.52h101.547v100.267H359.467z" />
                  <path class="cls-8" x="18.59" y="26.04" width="1.28" height="1.21"
                    d="M396.587 555.52h27.307V581.333h-27.307z" />
                  <path class="cls-8" x="18.59" y="29.53" width="1.28" height="1.21"
                    d="M396.587 629.973h27.307v25.813h-27.307z" />
                  <g>
                    <path class="cls-15" x="17.08" y="29.77" width="1.24" height=".75"
                      d="M364.373 635.093h26.453v16h-26.453z" />
                    <g>
                      <path class="cls-14" x="17.13" y="29.88" width=".13" height=".54"
                        d="M365.44 637.44h2.773v11.52h-2.773z" />
                      <path class="cls-14" x="17.34" y="29.88" width=".05" height=".54"
                        d="M369.92 637.44h1.067v11.52h-1.067z" />
                      <path class="cls-14" x="17.58" y="29.88" width=".11" height=".54"
                        d="M375.04 637.44h2.347v11.52h-2.347z" />
                      <path class="cls-14" x="17.44" y="29.88" width=".07" height=".54"
                        d="M372.053 637.44h1.493v11.52h-1.493z" />
                      <path class="cls-14" x="17.77" y="29.88" width=".04" height=".54"
                        d="M379.093 637.44h0.853v11.52h-0.853z" />
                      <path class="cls-14" x="17.98" y="29.88" width=".09" height=".54"
                        d="M383.573 637.44h1.92v11.52h-1.92z" />
                      <path class="cls-14" x="18.09" y="29.88" width=".04" height=".54"
                        d="M385.92 637.44h0.853v11.52h-0.853z" />
                      <path class="cls-14" x="17.87" y="29.88" width=".06" height=".54"
                        d="M381.227 637.44h1.28v11.52h-1.28z" />
                      <path class="cls-14" x="18.19" y="29.88" width=".07" height=".54"
                        d="M388.053 637.44h1.493v11.52h-1.493z" />
                    </g>
                  </g>
                </g>
                <g>
                  <path class="cls-13" x="10.57" y="13.19" width="4.81" height="4.7"
                    d="M225.493 281.387h102.613v100.267H225.493z" />
                  <path class="cls-10" x="11.95" y="13.19" width="4.76" height="4.7"
                    d="M254.933 281.387h101.547v100.267H254.933z" />
                  <path class="cls-8" x="13.69" y="13.19" width="1.28" height="1.21"
                    d="M292.053 281.387h27.307v25.813h-27.307z" />
                  <g>
                    <path class="cls-15" x="12.17" y="16.92" width="1.24" height=".75"
                      d="M259.627 360.96h26.453v16h-26.453z" />
                    <g>
                      <path class="cls-14" x="12.23" y="17.03" width=".13" height=".54"
                        d="M260.907 363.307h2.773v11.52h-2.773z" />
                      <path class="cls-14" x="12.44" y="17.03" width=".05" height=".54"
                        d="M265.387 363.307h1.067v11.52h-1.067z" />
                      <path class="cls-14" x="12.68" y="17.03" width=".11" height=".54"
                        d="M270.507 363.307h2.347v11.52h-2.347z" />
                      <path class="cls-14" x="12.54" y="17.03" width=".07" height=".54"
                        d="M267.52 363.307h1.493v11.52h-1.493z" />
                      <path class="cls-14" x="12.86" y="17.03" width=".04" height=".54"
                        d="M274.347 363.307h0.853v11.52h-0.853z" />
                      <path class="cls-14" x="13.07" y="17.03" width=".09" height=".54"
                        d="M278.827 363.307h1.92v11.52h-1.92z" />
                      <path class="cls-14" x="13.19" y="17.03" width=".04" height=".54"
                        d="M281.387 363.307h0.853v11.52h-0.853z" />
                      <path class="cls-14" x="12.97" y="17.03" width=".06" height=".54"
                        d="M276.693 363.307h1.28v11.52h-1.28z" />
                      <path class="cls-14" x="13.28" y="17.03" width=".07" height=".54"
                        d="M283.307 363.307h1.493v11.52h-1.493z" />
                    </g>
                  </g>
                </g>
                <g>
                  <path class="cls-13" x="6.86" y="23.43" width="7.48" height="7.31"
                    d="M146.347 499.84h159.573v155.947H146.347z" />
                  <path class="cls-10" x="9" y="23.43" width="7.41" height="7.31" d="M192 499.84h158.08v155.947H192z" />
                  <path class="cls-8" x="11.71" y="23.43" width="1.99" height="1.88"
                    d="M249.813 499.84h42.453v40.107H249.813z" />
                  <path class="cls-8" x="11.71" y="28.86" width="1.99" height="1.88"
                    d="M249.813 615.68h42.453v40.107H249.813z" />
                  <g>
                    <path class="cls-15" x="9.35" y="29.24" width="1.92" height="1.16"
                      d="M199.467 623.787h40.96v24.747H199.467z" />
                    <g>
                      <path class="cls-14" x="9.44" y="29.4" width=".2" height=".84"
                        d="M201.387 627.2h4.267v17.92h-4.267z" />
                      <path class="cls-14" x="9.77" y="29.4" width=".07" height=".84"
                        d="M208.427 627.2h1.493v17.92h-1.493z" />
                      <path class="cls-14" x="10.13" y="29.4" width=".17" height=".84"
                        d="M216.107 627.2h3.627v17.92h-3.627z" />
                      <path class="cls-14" x="9.92" y="29.4" width=".1" height=".84"
                        d="M211.627 627.2h2.133v17.92h-2.133z" />
                      <path class="cls-14" x="10.42" y="29.4" width=".07" height=".84"
                        d="M222.293 627.2h1.493v17.92h-1.493z" />
                      <path class="cls-14" x="10.75" y="29.4" width=".14" height=".84"
                        d="M229.333 627.2h2.987v17.92H229.333z" />
                      <path class="cls-14" x="10.94" y="29.4" width=".07" height=".84"
                        d="M233.387 627.2h1.493v17.92h-1.493z" />
                      <path class="cls-14" x="10.59" y="29.4" width=".09" height=".84"
                        d="M225.92 627.2h1.92v17.92h-1.92z" />
                      <path class="cls-14" x="11.08" y="29.4" width=".1" height=".84"
                        d="M236.373 627.2h2.133v17.92h-2.133z" />
                    </g>
                  </g>
                </g>
              </g>
              <g>
                <path class="cls-5" points="3.34 11.4 3.28 13.76 4.51 13.79 4.61 11.42 3.34 11.4"
                  d="m71.253 243.2 -1.28 50.347 26.24 0.64 2.133 -50.56z" />
                <g>
                  <path class="cls-2"
                    d="M54.827 154.24v26.027h-1.28c-9.387 0 -17.067 7.68 -17.067 17.493s7.68 17.493 17.067 17.493h1.28v5.973c0 22.4 18.133 40.747 40.747 40.747h0.853c22.4 0 40.747 -18.133 40.747 -40.747V154.667h-82.133Z" />
                  <path class="cls-14"
                    d="M95.36 195.413c0 3.2 -2.56 5.547 -5.547 5.547s-5.547 -2.56 -5.547 -5.547 2.56 -5.547 5.547 -5.547 5.547 2.56 5.547 5.547" />
                  <path class="cls-14" cx="5.66" cy="9.16" r=".26"
                    d="M126.293 195.413a5.547 5.547 0 0 1 -5.547 5.547 5.547 5.547 0 0 1 -5.547 -5.547 5.547 5.547 0 0 1 11.093 0" />
                  <path class="cls-4"
                    d="M87.253 223.36h32.427s-1.067 15.787 -15.787 15.787 -16.64 -15.787 -16.64 -15.787" />
                  <path class="cls-14" x="5.26" y="8.41" width=".72" height=".21" rx=".1" ry=".1"
                    d="M114.347 179.413h11.093a2.133 2.133 0 0 1 2.133 2.133v0.213a2.133 2.133 0 0 1 -2.133 2.131h-11.093a2.133 2.133 0 0 1 -2.133 -2.133v-0.213a2.133 2.133 0 0 1 2.133 -2.133" />
                  <path class="cls-14" x="3.84" y="8.41" width=".72" height=".21" rx=".1" ry=".1"
                    d="M84.053 179.413h11.093a2.133 2.133 0 0 1 2.133 2.133v0.213a2.133 2.133 0 0 1 -2.133 2.133h-11.093a2.133 2.133 0 0 1 -2.133 -2.133v-0.213a2.133 2.133 0 0 1 2.133 -2.133" />
                  <path class="cls-14"
                    d="M38.613 154.24s4.48 -36.48 45.651 -28.8 61.867 8.747 67.627 1.707c0 0 11.947 38.613 -34.56 38.613s-44.16 -5.547 -48.427 3.413c-4.267 9.173 -1.707 24.32 -1.707 24.32H56.747s0 -16.427 -15.36 -8.107c0 0 -3.84 -10.88 -2.56 -31.147Z" />
                </g>
                <path class="cls-1"
                  d="M157.44 391.893c0.64 -1.067 1.28 -2.133 2.133 -2.987 -4.907 -5.12 -10.24 -10.667 -13.867 -14.72 -2.773 -2.987 -4.693 -6.613 -5.973 -10.453l-11.52 -59.093c-1.92 -9.813 -7.68 -18.347 -16 -23.68 -0.427 -0.213 -0.853 -0.64 -1.28 -0.64 -19.2 -9.387 -25.6 15.147 -26.027 23.893 0 2.56 0.427 5.12 1.493 7.467l33.067 73.387a10.347 10.347 0 0 0 9.387 5.973l21.973 16.213c1.493 -5.333 4.053 -10.667 6.827 -15.36Z" />
                <path class="cls-14"
                  d="M108.16 626.773v43.093h77.867c0 -10.24 -5.973 -19.413 -15.573 -22.827 -11.093 -3.84 -25.6 -11.307 -35.413 -25.173l-27.093 4.907Z" />
                <path class="cls-7"
                  d="m135.253 622.08 -27.093 4.907v15.147l45.013 -2.987c-6.4 -4.053 -12.8 -9.6 -17.92 -16.853Z" />
                <path class="cls-14"
                  d="M42.027 626.773v43.093h77.867c0 -10.24 -5.973 -19.413 -15.573 -22.827 -11.093 -3.84 -25.6 -11.307 -35.413 -25.173l-27.093 4.907Z" />
                <path class="cls-7"
                  d="m69.12 622.08 -27.093 4.907v15.147l45.013 -2.987c-6.4 -4.053 -12.8 -9.6 -17.92 -16.853Z" />
                <path class="cls-11"
                  d="M121.387 422.4h5.76c5.333 -53.973 0 -96.64 -4.907 -121.173a43.307 43.307 0 0 0 -24.96 -31.147c-7.893 2.987 -16.853 3.84 -24.107 -0.853a13.333 13.333 0 0 1 -1.707 -1.28c-16.213 3.84 -36.693 13.653 -39.68 30.507 -9.173 53.12 3.627 131.84 2.987 134.4 -1.493 7.467 1.28 199.04 1.28 199.04h48l0.64 -165.333c7.893 14.08 17.067 52.693 16.427 56.107l1.28 104.96 44.587 5.333 4.693 -116.907c2.133 -8.747 -18.773 -63.573 -30.08 -93.227Z" />
                <path class="cls-1"
                  d="M60.8 408.533c14.933 1.28 29.653 3.627 44.587 2.987 3.2 0 6.187 -0.213 9.173 -0.213 6.827 -6.613 2.987 -14.72 0.213 -18.56 -7.04 -10.24 -40.32 -9.6 -44.8 -21.333 -5.12 -12.8 -4.267 -26.667 -4.267 -40.107 0 -18.56 -3.2 -32.213 -20.907 -39.893 -2.773 -1.28 -5.547 -2.347 -8.32 -3.413 -2.773 3.627 -4.693 7.68 -5.12 12.16 -4.267 33.28 0 75.947 4.053 104.107 8.32 2.347 16.64 3.413 25.813 4.267Z" />
                <g>
                  <path class="cls-11"
                    d="m0.213 376.32 34.773 -87.253c1.067 -2.347 2.56 -4.48 4.48 -6.187 6.613 -5.547 25.813 -10.667 31.787 10.027 1.067 3.413 0.64 9.173 -0.427 12.587l-30.507 58.88c-1.067 3.2 57.813 -2.773 57.813 -2.773l1.707 32.64s-36.693 1.707 -56.747 1.92c-41.813 0.64 -44.373 -16 -42.88 -19.627Z" />
                  <path class="cls-2"
                    d="M101.973 360.96a21.333 21.333 0 0 0 -3.627 0.427l1.707 32.64h3.627c10.88 -0.64 19.413 -8.533 18.987 -17.707s-9.813 -16.213 -20.693 -15.573Z" />
                </g>
                <path class="cls-3" points="6.33 15.8 4.33 19.42 6.88 20.01 9.24 16.28 6.33 15.8"
                  d="m135.04 337.067 -42.667 77.227 54.4 12.587 50.347 -79.571z" />
                <path class="cls-2"
                  d="M182.4 372.48c1.92 1.493 0.853 8.96 -2.133 15.573s-8.107 12.587 -10.027 11.947c-6.827 -2.773 -9.387 -11.307 -5.973 -18.987s12.373 -13.229 18.349 -8.533Z" />
              </g>
            </g>
          </g>
        </g>
      </g>
    </g>
  </g>
</svg>
