<svg xmlns="http://www.w3.org/2000/svg" viewBox="0 0 512 235.896" width="512" height="235.896">
  <defs>
    <style>
      .cls-1 {
        fill: #f4f9ff;
      }

      .cls-1, .cls-2, .cls-3, .cls-4, .cls-5, .cls-6, .cls-7, .cls-8, .cls-9, .cls-10, .cls-11 {
        fill-rule: evenodd;
      }

      .cls-2 {
        fill: #dddfe8;
      }

      .cls-12, .cls-13 {
        fill: #041634;
      }

      .cls-3, .cls-14 {
        fill: #1d305f;
      }

      .cls-4, .cls-15 {
        fill: #fff;
      }

      .cls-15 {
        opacity: .9;
      }

      .cls-16 {
        fill: #f3c37c;
      }

      .cls-17 {
        isolation: isolate;
      }

      .cls-18 {
        fill: #bfbfbf;
      }

      .cls-5 {
        fill: #d0d5dd;
      }

      .cls-19 {
        fill: #f1c500;
      }

      .cls-6 {
        opacity: .5;
      }

      .cls-6, .cls-9 {
        fill: gray;
        mix-blend-mode: multiply;
      }

      .cls-7 {
        fill: #7a7c83;
      }

      .cls-8 {
        fill: #dd3e13;
      }

      .cls-13 {
        font-family: Poppins-Black, Poppins;
        font-size: 6.62px;
        font-weight: 800;
      }

      .cls-9 {
        opacity: .35;
      }

      .cls-20, .cls-10 {
        fill: #16131b;
      }

      .cls-21 {
        fill: #fffff3;
      }

      .cls-11 {
        fill: #324981;
      }
    </style>
  </defs>
  <g class="cls-17">
    <g id="Layer_2">
      <g id="Layer_1-2" data-name="Layer_1">
        <g>
          <g>
            <path class="cls-6" d="M0.954 235.529H53.563l100.668 -30.597c1.761 -0.514 2.788 -2.348 2.495 -4.182h1.027v2.275c0 1.027 0.807 1.834 1.834 1.834h25.827c-0.22 7.998 2.641 16.069 8.731 22.232 11.74 11.74 30.817 11.74 42.557 0 6.09 -6.09 8.952 -14.234 8.731 -22.232h135.741c-0.22 7.998 2.641 16.069 8.731 22.232 11.74 11.74 30.817 11.74 42.557 0 6.09 -6.09 8.952 -14.234 8.731 -22.232h40.869c0.954 0 1.761 -0.807 1.761 -1.761v-66.55l-32.211 -59.579c-1.614 -2.715 -1.834 -4.109 -7.924 -4.329h-51.068c-3.742 0 -5.723 1.761 -6.163 4.989v25.387l-0.073 -12.253H378.607V49.6a4.256 4.256 0 0 0 -4.256 -4.256H167.071c-0.587 0 -1.101 0.147 -1.541 0.293 -0.147 0 -0.293 0.147 -0.44 0.22 -0.293 0.147 -0.587 0.367 -0.88 0.587 -0.147 0.147 -0.22 0.293 -0.367 0.44 -0.22 0.22 -0.367 0.514 -0.514 0.807 -0.073 0.22 -0.147 0.367 -0.22 0.587 0 0.147 -0.147 0.293 -0.147 0.44v0.44s-0.073 0.293 -0.073 0.44v132.659s0.073 0.293 0.073 0.44v0.44h-3.595c-1.027 0 -1.834 0.807 -1.834 1.834v3.302h-4.989a3.669 3.669 0 0 0 -4.036 -1.541l-19.224 5.87 9.392 -2.935 -17.683 -56.791 -57.598 17.903 17.61 56.571 -5.797 1.761 -17.61 -56.571 -57.451 17.976 17.536 56.277 -16.729 5.063c-1.321 0.587 -1.174 3.375 0 3.669m377.873 -53.196v0.88h-0.147s0.147 -0.587 0.147 -0.88"/>
            <g>
              <g>
                <path class="cls-16" x="10.82" y="17.82" width="8.22" height="8.11" transform="rotate(-17.27 14.935 21.872)" d="M79.39 130.752H139.703V190.257H79.39V130.752z"/>
                <path class="cls-15" x="12.93" y="17.96" width="2.21" height="2.09" transform="rotate(-17.27 14.023 19.005)" d="M94.872 131.779H111.087V147.114H94.872V131.779z"/>
                <path class="cls-15" x="14.72" y="23.71" width="2.21" height="2.09" transform="rotate(-17.27 15.814 24.734)" d="M108.006 173.968H124.221V189.304H108.006V173.968z"/>
                <g>
                  <path class="cls-21" x="17.29" y="23.35" width="2.13" height="1.29" transform="rotate(-17.27 18.355 23.975)" d="M126.863 171.327H142.491V180.792H126.863V171.327z"/>
                  <g>
                    <path class="cls-20" x="19.06" y="23.27" width=".23" height=".93" transform="rotate(-17.28 19.182 23.754)" d="M139.85 170.74H141.537V177.564H139.85V170.74z"/>
                    <path class="cls-20" x="18.86" y="23.36" width=".08" height=".93" transform="rotate(-17.26 18.897 23.831)" d="M138.382 171.4H138.969V178.224H138.382V171.4z"/>
                    <path class="cls-20" x="18.37" y="23.49" width=".19" height=".93" transform="rotate(-17.29 18.461 23.97)" d="M134.787 172.354H136.181V179.178H134.787V172.354z"/>
                    <path class="cls-20" x="18.66" y="23.41" width=".11" height=".93" transform="rotate(-17.3 18.732 23.867)" d="M136.915 171.767H137.722V178.591H136.915V171.767z"/>
                    <path class="cls-20" x="18.17" y="23.57" width=".08" height=".93" transform="rotate(-17.27 18.213 24.02)" d="M133.32 172.941H133.907V179.765H133.32V172.941z"/>
                    <path class="cls-20" x="17.75" y="23.69" width=".15" height=".93" transform="rotate(-17.27 17.821 24.163)" d="M130.238 173.822H131.338V180.645H130.238V173.822z"/>
                    <path class="cls-20" x="17.62" y="23.74" width=".08" height=".93" transform="rotate(-17.29 17.65 24.217)" d="M129.284 174.189H129.871V181.012H129.284V174.189z"/>
                    <path class="cls-20" x="17.96" y="23.63" width=".11" height=".93" transform="rotate(-17.3 17.991 24.09)" d="M131.779 173.381H132.586V180.205H131.779V173.381z"/>
                    <path class="cls-20" x="17.44" y="23.8" width=".11" height=".93" transform="rotate(-17.26 17.484 24.257)" d="M127.963 174.629H128.77V181.453H127.963V174.629z"/>
                  </g>
                </g>
              </g>
              <g>
                <path class="cls-16" x="2.17" y="20.5" width="8.22" height="8.11" transform="rotate(-17.27 6.274 24.565)" d="M15.922 150.416H76.235V209.921H15.922V150.416z"/>
                <path class="cls-15" x="4.29" y="20.63" width="2.21" height="2.09" transform="rotate(-17.27 5.4 21.67)" d="M31.477 151.369H47.693V166.704H31.477V151.369z"/>
                <path class="cls-15" x="6.07" y="26.38" width="2.21" height="2.09" transform="rotate(-17.27 7.186 27.432)" d="M44.538 193.559H60.753V208.894H44.538V193.559z"/>
                <g>
                  <path class="cls-21" x="8.65" y="26.02" width="2.13" height="1.29" transform="rotate(-17.27 9.726 26.673)" d="M63.468 190.918H79.097V200.383H63.468V190.918z"/>
                  <g>
                    <path class="cls-20" x="10.42" y="25.94" width=".23" height=".93" transform="rotate(-17.28 10.53 26.411)" d="M76.455 190.331H78.143V197.154H76.455V190.331z"/>
                    <path class="cls-20" x="10.22" y="26.03" width=".08" height=".93" transform="rotate(-17.28 10.247 26.503)" d="M74.988 190.991H75.575V197.815H74.988V190.991z"/>
                    <path class="cls-20" x="9.73" y="26.17" width=".19" height=".93" transform="rotate(-17.27 9.83 26.655)" d="M71.392 192.018H72.786V198.842H71.392V192.018z"/>
                    <path class="cls-20" x="10.02" y="26.09" width=".11" height=".93" transform="rotate(-17.26 10.094 26.54)" d="M73.52 191.431H74.327V198.255H73.52V191.431z"/>
                    <path class="cls-20" x="9.52" y="26.25" width=".08" height=".93" transform="rotate(-17.27 9.552 26.714)" d="M69.852 192.605H70.439V199.429H69.852V192.605z"/>
                    <path class="cls-20" x="9.1" y="26.37" width=".15" height=".93" transform="rotate(-17.28 9.19 26.814)" d="M66.77 193.486H67.87V200.31H66.77V193.486z"/>
                    <path class="cls-20" x="8.98" y="26.42" width=".08" height=".93" transform="rotate(-17.29 9.036 26.878)" d="M65.889 193.853H66.476V200.676H65.889V193.853z"/>
                    <path class="cls-20" x="9.31" y="26.31" width=".11" height=".93" transform="rotate(-17.3 9.377 26.782)" d="M68.311 193.046H69.118V199.869H68.311V193.046z"/>
                    <path class="cls-20" x="8.79" y="26.47" width=".11" height=".93" transform="rotate(-17.26 8.856 26.925)" d="M64.495 194.22H65.302V201.043H64.495V194.22z"/>
                  </g>
                </g>
              </g>
              <path class="cls-18" x="23.36" y="4.86" width="29.41" height="19.24" rx=".58" ry=".58" d="M175.656 35.66H382.936A4.256 4.256 0 0 1 387.192 39.915V172.574A4.256 4.256 0 0 1 382.936 176.83H175.656A4.256 4.256 0 0 1 171.4 172.574V39.915A4.256 4.256 0 0 1 175.656 35.66z"/>
              <path class="cls-9" d="M358.723 35.66H338.985L253.138 135.668c-1.247 1.467 -3.522 1.688 -4.989 0.367a3.522 3.522 0 0 1 -0.367 -4.989l81.958 -95.385h-154.084c-2.054 0 -3.742 1.467 -4.182 3.375v134.42h72.126z"/>
              <path class="cls-8" d="M223.496 156.726h-3.228l-0.44 0.073h-0.514l-0.514 0.147h-0.514l-0.367 0.147h-0.514l-0.44 0.147h-0.293l-0.734 0.22h-0.073c-6.97 1.467 -13.647 4.769 -19.15 10.052a36.687 36.687 0 0 0 -4.989 5.797h51.875l5.943 -7.044a39.108 39.108 0 0 0 -21.939 -9.392h-0.073s-0.587 0 -0.88 -0.073h-3.155Z"/>
              <path class="cls-8" d="m201.043 173.235 -0.147 0.147h42.703l1.394 -1.688a32.211 32.211 0 0 0 -43.951 1.467Z"/>
              <path class="cls-8" d="M203.905 173.381a30.083 30.083 0 0 1 39.768 0s-39.695 0 -39.695 0Z"/>
              <path class="cls-14" x="21.92" y="24.33" width=".82" height="1.69" d="M160.835 178.518H166.851V190.918H160.835V178.518z"/>
              <path class="cls-14" x="22.63" y="23.63" width="34.53" height="2.95" rx=".25" ry=".25" d="M167.878 173.381H417.568A1.834 1.834 0 0 1 419.403 175.216V193.192A1.834 1.834 0 0 1 417.568 195.027H167.878A1.834 1.834 0 0 1 166.044 193.192V175.216A1.834 1.834 0 0 1 167.878 173.381z"/>
              <path class="cls-10" d="M162.522 195.173 61.854 225.77H9.245c-1.174 -0.293 -1.321 -3.082 0 -3.669l147.701 -45.051a3.669 3.669 0 0 1 4.549 2.421l3.375 11.153a3.669 3.669 0 0 1 -2.421 4.549Z"/>
              <path class="cls-4" points="54.54 9.61 62.11 9.51 66.22 16.87 66.01 21.93 55.23 21.93 54.54 9.61" d="M400.179 70.512L455.723 69.778L485.879 123.781L484.338 160.908L405.242 160.908L400.179 70.512Z"/>
              <path class="cls-2" points="55.09 19.5 55.16 19.55 62.07 9.51 54.54 9.61 55.09 19.5" d="M404.214 143.078L404.728 143.445L455.429 69.778L400.179 70.512L404.214 143.078Z"/>
              <path class="cls-3" d="M417.568 195.1H167.878c-1.027 0 -1.834 -0.807 -1.834 -1.834v-8.952h253.359v8.952c0 1.027 -0.807 1.834 -1.834 1.834"/>
              <path class="cls-20" x="52.76" y="11.04" width="1.06" height="13.45" d="M387.118 81.004H394.896V179.692H387.118V81.004z"/>
              <path class="cls-11" d="m394.969 67.87 -0.514 127.156h95.972c0.954 0 1.761 -0.807 1.761 -1.761v-66.55l-32.211 -59.579c-1.614 -2.715 -1.834 -4.109 -7.924 -4.329h-51.068c-3.742 0 -5.723 1.761 -6.163 4.989Zm10.346 67.577 -0.44 -61.707c0 -1.614 0.367 -2.715 1.614 -2.788h43.364c2.715 0 3.595 0.22 5.43 3.669l27.735 51.582v26.708l-17.976 -0.147a61.707 61.707 0 0 0 -59.726 -17.39Z"/>
              <path class="cls-3" d="M492.336 167.732v25.534c0 0.954 -0.807 1.761 -1.761 1.761H394.602l0.073 -27.368h97.733Z"/>
              <path class="cls-1" d="M419.916 156.726h3.228l0.44 0.073h0.514l0.514 0.147h0.514l0.367 0.147h0.514l0.44 0.147h0.293l0.734 0.22h0.073c6.97 1.467 13.647 4.769 19.15 10.052a39.035 39.035 0 0 1 12.107 27.442H380.368a39.233 39.233 0 0 1 35.513 -38.154h0.073s0.587 0 0.88 -0.073h3.155Z"/>
              <path class="cls-7" d="M396.877 173.235c-6.017 6.017 -9.172 13.941 -9.392 21.865h64.349a32.284 32.284 0 0 0 -9.392 -21.865 32.284 32.284 0 0 0 -45.565 0"/>
              <path class="cls-10" d="M398.345 174.702c11.74 -11.74 30.817 -11.74 42.557 0s11.74 30.817 0 42.557 -30.817 11.74 -42.557 0 -11.74 -30.817 0 -42.557"/>
              <path class="cls-5" d="M409.717 186.148c5.43 -5.43 14.308 -5.43 19.737 0s5.43 14.308 0 19.737 -14.308 5.43 -19.737 0 -5.43 -14.308 0 -19.737"/>
              <path class="cls-5" d="M413.313 189.744c3.449 -3.449 9.098 -3.449 12.547 0s3.449 9.098 0 12.547 -9.098 3.449 -12.547 0 -3.449 -9.098 0 -12.547"/>
              <path class="cls-10" d="M415.954 192.385a5.136 5.136 0 0 1 7.337 0 5.136 5.136 0 0 1 0 7.337 5.136 5.136 0 0 1 -7.337 0 5.136 5.136 0 0 1 0 -7.337"/>
              <path class="cls-1" d="M223.496 156.726h-3.228l-0.44 0.073h-0.514l-0.514 0.147h-0.514l-0.367 0.147h-0.514l-0.44 0.147h-0.293l-0.734 0.22h-0.073c-6.97 1.467 -13.647 4.769 -19.15 10.052a39.035 39.035 0 0 0 -12.107 27.442h78.51a39.233 39.233 0 0 0 -35.513 -38.154h-0.073s-0.587 0 -0.88 -0.073h-3.155"/>
              <path class="cls-7" d="M201.043 173.235c-6.017 6.017 -9.172 13.868 -9.392 21.792h64.349a31.991 31.991 0 0 0 -9.392 -21.792 32.284 32.284 0 0 0 -45.565 0"/>
              <path class="cls-10" d="M202.511 174.702c11.74 -11.74 30.817 -11.74 42.557 0s11.74 30.817 0 42.557 -30.817 11.74 -42.557 0 -11.74 -30.817 0 -42.557"/>
              <path class="cls-5" d="M213.957 186.148c5.43 -5.43 14.308 -5.43 19.737 0s5.43 14.308 0 19.737 -14.308 5.43 -19.737 0 -5.43 -14.308 0 -19.737"/>
              <path class="cls-5" d="M217.552 189.744c3.449 -3.449 9.098 -3.449 12.547 0s3.449 9.098 0 12.547 -9.098 3.449 -12.547 0 -3.449 -9.098 0 -12.547"/>
              <path class="cls-10" d="M220.12 192.385a5.136 5.136 0 0 1 7.337 0 5.136 5.136 0 0 1 0 7.337 5.136 5.136 0 0 1 -7.337 0 5.136 5.136 0 0 1 0 -7.337"/>
              <path class="cls-10" d="M162.522 195.173 61.854 225.77H34.045l129.137 -40.942 1.761 5.723a3.669 3.669 0 0 1 -2.421 4.549Z"/>
            </g>
          </g>
          <g>
            <path class="cls-12" d="M254.239 116.297c-0.514 0.073 -2.275 0 -2.641 0v-16.656h2.641c0.22 0 0.367 0.073 0.514 0.293 0.807 1.101 1.688 2.201 2.568 3.302 1.467 1.981 3.008 3.889 4.476 5.87l2.201 3.082c0.073 0.147 0.147 0.293 0.367 0.367 0 0 0.073 0 0.073 -0.073v-12.767h2.641v16.656h-2.495c-0.22 0 -0.367 -0.073 -0.514 -0.293 -1.101 -1.467 -2.201 -2.862 -3.302 -4.256 -1.321 -1.688 -2.568 -3.375 -3.889 -5.063 -0.66 -0.88 -1.321 -1.834 -1.981 -2.715 -0.073 -0.147 -0.147 -0.22 -0.22 -0.367 0 0 -0.073 0 -0.22 -0.073 -0.073 0.514 0 0.954 0 1.394v11.153Z"/>
            <path class="cls-12" d="M224.743 109.106s0.147 0.147 0.22 0.147c0.587 0.293 1.101 0.66 1.467 1.247 0.367 0.514 0.66 1.101 1.027 1.688 0.734 1.247 1.394 2.495 2.128 3.742 0 0.073 0.073 0.22 0.147 0.293h-2.935c-0.073 -0.147 -0.22 -0.367 -0.293 -0.514l-2.421 -4.182c0 -0.073 -0.147 -0.22 -0.147 -0.293a3.082 3.082 0 0 0 -2.421 -1.467h-3.962c-0.147 0.147 0 0.367 0 0.514v5.87h-2.641v-16.729h8.365c0.66 0 1.321 0 1.981 0.147 0.88 0.147 1.761 0.44 2.495 0.954 1.174 0.734 1.761 1.834 1.908 3.155 0.073 0.587 0 1.174 0 1.761 -0.293 1.541 -1.247 2.568 -2.641 3.155q-0.88 0.33 -1.981 0.44Zm-7.337 -7.117v5.723h6.237c0.44 0 0.88 0 1.321 -0.22 0.88 -0.293 1.467 -0.88 1.614 -1.834a5.136 5.136 0 0 0 0 -1.467c-0.147 -1.027 -0.66 -1.614 -1.688 -1.981a7.337 7.337 0 0 0 -1.688 -0.22h-5.87Z"/>
            <path class="cls-12" d="M313.892 116.517c-1.174 0 -2.421 -0.22 -3.595 -0.66 -2.054 -0.88 -3.522 -2.348 -4.329 -4.402 -0.514 -1.467 -0.66 -2.935 -0.587 -4.476 0.073 -1.101 0.293 -2.128 0.807 -3.082 0.88 -1.981 2.421 -3.302 4.402 -4.036 1.541 -0.587 3.155 -0.66 4.769 -0.514 1.101 0.147 2.128 0.367 3.082 0.88 2.054 1.027 3.375 2.715 3.962 4.916 0.44 1.541 0.44 3.155 0.147 4.769 -0.293 1.761 -1.101 3.228 -2.348 4.476 -0.88 0.807 -1.908 1.321 -3.008 1.688 -1.027 0.367 -2.128 0.44 -3.375 0.44Zm0.22 -14.675c-0.88 0 -1.761 0.073 -2.568 0.367a4.256 4.256 0 0 0 -2.641 2.128c-0.293 0.587 -0.44 1.174 -0.587 1.761 -0.147 0.66 -0.147 1.321 -0.147 1.981 0 0.88 0.073 1.688 0.367 2.495 0.514 1.688 1.688 2.641 3.375 3.082q2.091 0.44 4.182 0c1.761 -0.367 2.935 -1.467 3.449 -3.228 0.293 -1.027 0.367 -2.128 0.293 -3.155 0 -0.734 -0.147 -1.394 -0.367 -2.054a4.623 4.623 0 0 0 -2.054 -2.641c-0.293 -0.147 -0.66 -0.293 -1.027 -0.44 -0.807 -0.293 -1.614 -0.293 -2.421 -0.367Z"/>
            <path class="cls-12" d="M248.956 107.859c0 1.394 -0.22 2.641 -0.734 3.815 -0.807 1.981 -2.275 3.302 -4.182 4.109 -1.247 0.514 -2.568 0.734 -3.889 0.66 -1.247 0 -2.495 -0.22 -3.669 -0.66 -2.128 -0.88 -3.595 -2.348 -4.402 -4.549 -0.514 -1.467 -0.66 -3.008 -0.514 -4.623 0.147 -1.174 0.44 -2.275 0.954 -3.302 0.954 -1.761 2.348 -2.935 4.256 -3.595 1.541 -0.587 3.082 -0.66 4.696 -0.514 1.101 0.147 2.201 0.367 3.155 0.88 2.054 1.027 3.302 2.715 3.962 4.916 0.293 0.88 0.367 1.834 0.367 2.715Zm-8.878 -6.017c-0.44 0 -1.027 0.073 -1.614 0.147s-1.101 0.293 -1.614 0.587c-1.027 0.587 -1.688 1.467 -2.054 2.568 -0.22 0.66 -0.293 1.394 -0.367 2.054 0 1.101 0 2.201 0.293 3.228 0.514 1.688 1.614 2.715 3.302 3.155 1.321 0.293 2.641 0.293 3.962 0.073 0.514 -0.073 0.954 -0.22 1.467 -0.44 1.247 -0.587 1.981 -1.541 2.421 -2.862 0.293 -0.954 0.367 -1.981 0.293 -3.008 0 -0.734 -0.073 -1.467 -0.293 -2.201a4.549 4.549 0 0 0 -3.155 -3.155c-0.807 -0.22 -1.614 -0.293 -2.568 -0.293Z"/>
            <path class="cls-12" d="M289.899 113.949h-2.715v-14.234h7.337c0.66 0 1.394 0 2.054 0.147 1.321 0.22 2.495 0.66 3.522 1.394 1.321 0.954 2.201 2.275 2.715 3.815 0.587 1.981 0.587 4.036 0 6.017 -0.734 2.495 -2.421 4.182 -4.916 4.916q-1.541 0.44 -3.082 0.44h-4.989v-2.348h4.769c0.44 0 0.88 0 1.394 -0.073 0.514 0 1.027 -0.147 1.467 -0.293a4.036 4.036 0 0 0 2.275 -1.981c0.22 -0.44 0.367 -0.954 0.44 -1.394 0.22 -0.954 0.22 -1.981 0.147 -2.935q0 -1.101 -0.44 -2.201a3.962 3.962 0 0 0 -2.275 -2.421c-0.587 -0.22 -1.247 -0.367 -1.908 -0.44 -1.908 -0.147 -3.815 0 -5.723 0h-0.22v11.887Z"/>
            <path class="cls-12" d="M344.122 99.568h2.641v7.044h5.063l4.843 -7.044c0.367 0 2.715 -0.073 3.082 0 0 0.147 0 0.22 -0.147 0.293l-2.201 3.082c-1.027 1.467 -2.128 2.935 -3.155 4.476 -0.073 0.147 -0.147 0.22 -0.22 0.367 0.073 0.147 0.147 0.293 0.293 0.44l5.21 7.631c0.073 0.147 0.22 0.22 0.22 0.367h-3.082c-1.614 -2.348 -3.228 -4.696 -4.843 -6.97h-5.063v6.897h-2.641v-16.729Z"/>
            <path class="cls-12" d="M341.48 105.218h-2.641v-0.293c0 -0.293 0 -0.587 -0.073 -0.88a1.981 1.981 0 0 0 -1.174 -1.541 4.402 4.402 0 0 0 -1.321 -0.44c-1.467 -0.22 -2.935 -0.293 -4.476 0q-0.66 0.11 -1.321 0.44a4.402 4.402 0 0 0 -2.275 2.421 6.604 6.604 0 0 0 -0.44 2.421c0 1.027 0 1.981 0.22 2.935 0.147 0.514 0.293 0.954 0.514 1.394 0.514 0.88 1.247 1.467 2.201 1.834 0.587 0.22 1.174 0.367 1.834 0.44 1.101 0.073 2.275 0 3.375 -0.073 0.44 0 0.807 -0.147 1.174 -0.293 0.954 -0.367 1.541 -1.101 1.614 -2.128v-0.734h2.715v0.22c0 0.807 -0.147 1.614 -0.44 2.348 -0.44 0.954 -1.101 1.614 -1.981 2.128 -0.734 0.44 -1.467 0.66 -2.275 0.807 -1.834 0.367 -3.669 0.514 -5.503 0.073 -2.935 -0.66 -4.989 -2.348 -5.943 -5.283a11.006 11.006 0 0 1 -0.293 -5.063c0.22 -1.101 0.587 -2.201 1.247 -3.155 0.954 -1.394 2.201 -2.348 3.815 -2.935 1.027 -0.367 2.128 -0.587 3.302 -0.587 0.954 0 1.908 0 2.862 0.22 0.734 0.147 1.467 0.293 2.128 0.587 0.954 0.44 1.834 0.954 2.421 1.908 0.66 0.954 0.88 2.054 0.807 3.155v0.073Z"/>
            <path class="cls-12" d="M275.517 101.989h-6.457c-0.073 -0.293 0 -0.514 0 -0.807v-1.541h15.702c0.073 0.367 0.073 1.614 0 2.348h-6.457v14.234c-0.367 0.073 -2.128 0.073 -2.641 0v-14.308Z"/>
            <path class="cls-12" d="M201.484 101.916v5.136c0.147 0.147 0.367 0.073 0.514 0.073h9.759c0.147 0.293 0 0.514 0.073 0.734v1.614h-10.126s-0.073 0.293 -0.073 0.44v6.31h-2.641v-14.161h2.788Z"/>
            <path class="cls-12" d="M201.484 101.916v-2.348h10.492c0.073 0.22 0 0.514 0 0.807v1.541h-10.566Z"/>
          </g>
        </g>
      </g>
    </g>
  </g>
</svg>
